<svg width="60" height="57" viewBox="0 0 60 57" fill="none" xmlns="http://www.w3.org/2000/svg">
<g id="Group 1000005982">
<path id="Vector" d="M5.97917 23.7368C4.67821 23.7497 3.33989 22.6729 2.65035 21.6575C2.62997 21.6833 2.596 21.6995 2.57562 21.7577C3.31951 22.854 4.74615 23.9244 6.16599 23.8306C6.41056 23.8144 6.68569 23.753 6.94045 23.6721C6.96083 23.6301 6.96083 23.5848 6.96083 23.5492C6.66192 23.6463 6.27469 23.7368 5.97917 23.74V23.7368ZM9.02945 21.36C9.16532 20.2896 8.26179 19.494 7.24616 19.2256C7.25295 19.1351 7.25635 18.996 7.21219 18.8828C8.25499 19.19 9.15174 20.1408 9.13475 21.2371C9.12117 22.2751 8.12252 23.2 7.07972 23.6139C7.08311 23.5816 7.0967 23.5266 7.0933 23.4943C8.041 23.103 8.90717 22.2913 9.02606 21.36H9.02945ZM6.40716 18.7697C6.58379 18.7632 6.76042 18.7761 6.93705 18.8117C6.97442 18.8893 6.99819 19.0542 6.9948 19.1803C6.9948 19.1803 6.9948 19.1836 6.9948 19.1868C6.75363 19.1415 6.51246 19.1221 6.28488 19.1383C4.685 19.2418 2.5994 21.6542 2.56203 21.7027C1.04708 23.5913 -0.688664 30.8545 3.94451 32.1803C3.9581 32.2418 3.96829 32.287 3.99886 32.3808C-1.54804 30.6507 0.948573 23.09 2.45673 21.5249C2.94247 20.8846 4.73596 18.8343 6.40376 18.7664L6.40716 18.7697ZM10.1266 0.0555062C10.5206 -0.0544439 10.7754 0.239834 10.9248 0.54058C11.1253 0.944808 11.2611 1.3846 11.3291 1.82764C11.363 2.06047 11.577 3.50922 11.5838 3.58036C11.6484 4.31121 11.5498 5.04853 11.3494 5.75351C10.9282 7.26047 10.0791 8.6413 9.12117 9.88956C8.23461 11.0473 7.22238 12.1177 6.14221 13.1169C5.86707 13.3724 5.58854 13.6214 5.30661 13.8672C6.28148 13.2463 7.24955 12.6124 8.17687 11.9236C9.39291 11.0182 10.5376 10.0092 11.4717 8.83209C11.8929 8.30175 12.2666 7.73907 12.5893 7.14728C12.6266 7.07937 12.8814 6.54255 13.0546 6.1739C13.0784 5.88285 13.092 5.58857 13.0954 5.29752C13.0988 4.99678 13.1191 4.28857 13.1056 4.34678C13.1769 4.0428 13.5539 3.87142 13.8461 4.01694C14.1416 4.16246 14.1518 4.4729 14.0363 4.73161C13.88 5.07762 13.6796 5.40747 13.4622 5.72116C13.3705 5.85374 13.2109 6.18036 13.0546 6.27091C12.8848 6.66867 12.6368 7.20548 12.6028 7.27339C12.27 7.90722 11.8725 8.50871 11.4242 9.07463C10.4595 10.2873 9.27062 11.3254 8.01043 12.2567C7.24276 12.8259 6.44792 13.3562 5.64289 13.8801C6.03691 13.6925 6.44452 13.5276 6.86232 13.395C8.1395 12.994 9.47443 12.9261 10.8094 13.0231C12.1748 13.1234 13.6524 13.4597 14.984 13.0296C15.6905 12.8 16.4208 12.3246 16.7401 11.6617C17.0798 10.9535 17.0084 10.0771 16.6722 9.38185C16.3563 8.73185 15.738 8.21444 14.9704 8.14976C14.2706 8.08832 13.5268 8.40523 13.0988 8.93558C12.6708 9.46593 12.596 10.3035 13.1531 10.7789C13.4181 11.0052 13.7917 11.0699 14.094 10.8629C14.2299 10.7692 14.3488 10.6204 14.3148 10.4522C14.2944 10.3488 14.128 10.1159 14.0023 10.2679C14.2808 10.4652 13.8596 10.8274 13.6287 10.4943C13.4418 10.2226 13.6558 9.89602 13.9548 9.82164C14.3352 9.72463 14.6783 10.0318 14.7462 10.3746C14.8073 10.6851 14.6511 10.9761 14.3997 11.1669C13.8664 11.5809 13.1463 11.4224 12.7183 10.9567C12.2971 10.5008 12.219 9.85399 12.416 9.28807C12.8712 7.97191 14.6239 7.34777 15.8943 7.98483C17.1851 8.6316 17.6946 10.31 17.2496 11.5873C16.7265 13.0749 14.9568 13.6667 13.4486 13.6505C13.2958 13.6505 13.1463 13.644 12.9935 13.6376C13.7272 13.8542 14.4303 14.1582 15.0757 14.556C16.4853 15.4226 17.9969 17.0299 17.7693 18.747C17.681 19.397 17.3583 20.0502 16.8148 20.4545C16.5635 20.655 16.2408 20.8037 15.986 20.9298C15.4697 21.1789 14.9398 21.3955 14.4303 21.6575C13.4486 22.1619 12.4704 22.8928 12.3922 24.0375C12.3277 24.9786 12.9527 25.8517 13.88 26.1686C14.7937 26.4823 15.8298 26.1007 16.1491 25.1953C16.2951 24.7749 16.217 24.3124 15.8671 24.002C15.5207 23.6948 14.9466 23.5945 14.6035 23.9664C14.4507 24.1313 14.3658 24.3771 14.4643 24.5873C14.5492 24.7684 14.7768 24.9204 14.9908 24.8589C15.1742 24.8072 15.3304 24.5647 15.1674 24.4127C14.9636 24.2122 14.753 24.5517 14.9466 24.5873C14.7768 24.5614 14.8753 24.3512 15.001 24.3351C15.1368 24.3189 15.2523 24.445 15.2557 24.5647C15.2625 24.8331 14.9466 24.956 14.719 24.8719C14.0838 24.639 14.4133 23.8435 14.9228 23.6851C15.4935 23.5072 16.1015 23.9438 16.2679 24.4515C16.4344 24.956 16.2 25.5154 15.8264 25.8808C15.1029 26.5923 13.7713 26.644 12.9187 26.1589C11.9439 25.6027 11.5193 24.4903 12.0016 23.4069C12.4092 22.4885 13.2482 21.7351 14.5424 21.2985C14.9908 21.1465 15.4629 21.0139 15.9011 20.8264C15.2999 20.904 14.6817 20.6808 14.3148 20.1828C13.88 19.591 13.9683 18.6403 14.8345 18.4689C15.1878 18.3978 15.6056 18.6435 15.5988 19.0154C15.5954 19.1868 15.4629 19.342 15.2829 19.3711C15.198 19.3841 14.95 19.2062 15.0281 19.1836C15.0961 19.1609 15.1742 19.3841 15.3508 19.2741C15.5241 19.1674 15.5139 18.9637 15.4052 18.8214C15.2285 18.5853 14.9194 18.5853 14.6783 18.7244C13.8766 19.19 14.4575 20.1958 15.1368 20.448C15.952 20.7552 16.7741 20.2281 17.1579 19.5522C17.5383 18.8796 17.6402 18.042 17.2802 17.3629C15.4154 13.8478 10.5716 13.4047 9.70541 13.4015C8.50975 13.3983 7.33108 13.6052 6.23392 14.0709C6.16259 14.1 6.09126 14.1323 6.01993 14.1647C7.08651 13.796 8.22103 13.5891 9.35894 13.602C10.592 13.6149 11.8182 13.8898 12.9018 14.4622C13.8019 14.9376 15.1674 15.8689 16.0438 17.2821C16.1117 17.3888 16.2611 17.8803 15.9554 17.8092C15.7245 17.7575 15.6124 17.4923 15.5241 17.308C14.9126 15.995 13.2177 14.6595 12.6912 14.404C11.594 13.8736 10.361 13.644 9.13475 13.6699C7.86437 13.6958 6.60077 13.9868 5.44248 14.4751C5.37455 14.5042 5.31001 14.5333 5.24207 14.5657C5.12658 14.6304 5.01449 14.7015 4.9024 14.7694C5.17074 14.653 5.44248 14.5463 5.71762 14.446C6.64493 14.1129 7.62999 13.8801 8.62864 13.8866C9.57973 13.8898 10.5104 14.1226 11.3325 14.5721C11.7401 14.7953 13.0342 15.3418 13.9615 16.7388C13.9853 16.7711 14.0567 16.8649 13.9649 16.7453C14.3759 17.3662 13.9921 17.4341 13.8359 17.2045C13.4011 16.5512 12.7965 15.5488 11.2611 14.6401C10.4255 14.1453 9.60351 14.0289 8.58448 13.961C7.56885 13.8963 6.39357 14.2455 5.45607 14.6109C5.44588 14.6142 5.4221 14.6271 5.38134 14.6433C5.61911 14.556 5.86028 14.4816 6.10824 14.4234C7.25295 14.155 8.47578 14.2294 9.57633 14.6433C10.6973 15.0605 11.7231 15.7978 12.3719 16.7614C12.681 17.2206 13.2278 18.1552 13.3128 19.7398C13.3637 20.7197 13.0138 21.2435 12.7557 21.0269C12.5485 20.8555 12.7659 20.5353 12.8372 20.3219C13.3977 18.6823 12.5179 17.0978 12.1749 16.6353C11.4853 15.7104 10.4867 15.0055 9.35894 14.6368C8.22103 14.2617 6.97781 14.2455 5.82631 14.5851C5.67006 14.6304 5.51381 14.6853 5.36096 14.7435C6.13202 14.5333 6.95064 14.4751 7.74548 14.6045C9.45065 14.8858 10.8331 15.8754 11.6619 17.308C11.9133 17.6766 11.4174 17.9579 11.149 17.4017C10.2659 15.552 8.97171 15.1284 8.03081 14.8697C7.05594 14.6013 6.00294 14.6433 5.04166 14.9343C4.90919 14.9731 4.45402 15.1251 3.92413 15.5391C4.75634 15.2092 5.62251 14.999 6.39357 15.0314C7.78284 15.0831 9.00228 15.7622 9.58652 16.9749C9.719 17.1883 9.44046 17.4923 9.17891 16.9878C8.42483 15.5358 7.34806 15.3418 6.59058 15.2383C5.80933 15.1316 5.0077 15.2318 4.26381 15.4744C4.21965 15.4873 3.97848 15.5779 3.71353 15.6878C3.60484 15.746 3.51992 15.8075 3.41462 15.9368C3.65239 15.8463 3.88677 15.759 4.10076 15.691C4.56951 15.5455 5.05525 15.4485 5.55118 15.4323C6.50566 15.4032 7.23597 15.8139 7.84399 16.5318C8.15988 16.9037 7.90513 17.24 7.54168 16.6935C6.7876 15.7622 6.14561 15.442 4.21625 15.7428C3.96489 15.7816 3.43839 15.953 3.40443 15.9627C2.97983 16.7032 2.63676 17.4923 2.44654 18.3169C2.33785 18.7858 2.2767 19.2677 2.2801 19.7495C2.2801 20.0438 2.29369 20.6841 2.51448 21.3988C2.47372 21.4343 2.45334 21.4408 2.41937 21.4925C2.31067 21.1756 2.20537 20.6485 2.13064 20.3413C1.62792 18.2522 1.82833 16.0953 3.07834 14.2811C3.45198 13.7411 3.89696 13.256 4.34193 12.7677C5.27604 11.7361 6.0471 10.5137 6.76042 9.33335C8.01043 7.27017 6.81817 6.68161 6.35621 6.73982C6.21354 6.75599 6.03691 6.77862 5.99275 6.6331C5.57156 5.23285 7.14425 4.79305 7.67755 5.09703C7.63339 4.79305 7.3073 4.79305 7.06273 4.73161C6.71966 4.64753 6.45132 4.34678 6.32564 4.03956C6.21354 3.76145 6.19316 3.46073 6.19656 3.16968C6.19656 2.94978 6.25091 2.67167 6.1558 2.46147C5.85009 1.76297 5.05525 1.28758 4.26041 1.39429C3.56747 1.48808 2.88812 1.99257 2.6979 2.61993C2.50768 3.25376 2.65714 4.01369 3.10212 4.36618C3.19383 4.40499 3.07154 4.62165 3.0104 4.65076C2.92548 4.68957 2.82018 4.63135 2.75225 4.58608C2.50089 4.42115 2.30048 4.16245 2.1748 3.90051C1.49885 2.47116 2.67073 0.818676 4.08378 0.20425C5.50023 -0.410177 7.47034 0.456493 8.53013 1.54306C9.62389 2.6652 10.0315 4.23684 9.84128 5.7341C9.66465 7.13112 9.03285 8.44404 8.28556 9.64379C7.75227 10.5072 7.16803 11.3221 6.4717 12.0724C5.86707 12.7224 5.26925 13.3788 4.71557 14.0644C4.78691 14.0094 4.85824 13.9545 4.92617 13.8963C5.45267 13.4565 5.96218 13.0037 6.45471 12.5348C7.48733 11.555 8.4554 10.504 9.2944 9.36892C10.1776 8.17887 10.9486 6.86593 11.3121 5.43981C11.4819 4.77365 11.5566 4.08484 11.4887 3.39927C11.4819 3.33136 11.3087 2.38063 10.6599 1.71446C10.4119 1.45899 9.72919 0.909231 9.8141 0.980376C9.49821 0.728137 9.72579 0.168677 10.1266 0.0619604V0.0555062ZM5.80254 31.7761C6.01313 31.5012 6.16259 31.0097 5.9452 30.7025C5.82971 30.5408 5.34397 30.5634 5.34058 30.8092C5.34058 30.8739 5.31001 31 5.23867 30.8739C5.16734 30.7445 5.24207 30.7057 5.36096 30.6248C5.61232 30.4502 5.92482 30.4049 6.08107 30.7186C6.24411 31.0452 6.13202 31.5077 5.92822 31.7987C5.64629 32.203 5.08582 32.439 4.5865 32.4584C4.56272 32.4035 4.53894 32.3259 4.52536 32.2709C5.11299 32.3097 5.61911 32.0283 5.80933 31.7793L5.80254 31.7761ZM5.39493 7.77788C5.37115 7.71321 5.39493 7.79729 5.39493 7.77788V7.77788ZM6.19316 7.85225C6.2577 8.49579 5.89425 9.11669 5.54099 9.63733C4.71897 10.8435 3.66258 11.901 2.76244 13.0523C1.82494 14.2488 0.934986 15.5811 0.639468 17.0719C0.500201 17.7769 0.506994 18.5012 0.683626 19.1997C0.707403 19.2968 0.985937 20.1052 1.15917 20.4415C0.989334 20.1408 0.693816 19.4811 0.666642 19.4002C0.45944 18.8214 0.367727 18.207 0.391505 17.5958C0.445853 16.2537 1.01651 14.9861 1.71624 13.8413C2.42956 12.6739 3.29913 11.6035 4.12454 10.5072C4.50158 10.0092 4.88202 9.49827 5.16734 8.94529C5.27944 8.72862 5.38474 8.49579 5.4255 8.25648C5.45607 8.07862 5.39493 7.94281 5.39153 7.77788C5.29642 7.53535 5.53419 7.16345 5.82631 7.24753C6.09126 7.31868 6.16599 7.62589 6.18977 7.85225H6.19316ZM16.0404 17.2724C15.9758 17.156 16.1728 17.502 16.0404 17.2724V17.2724ZM4.59329 34.1659C4.94655 35.1296 5.39153 36.0415 5.75838 36.9632C4.99071 37.943 4.50837 39.1039 4.5831 40.3199C4.67481 41.843 5.1062 42.9231 5.49683 44.2231C5.87387 45.481 6.36979 46.9298 6.45132 48.2427C6.51246 49.1999 6.09466 50.3253 5.02808 50.6067C4.46761 50.7554 3.73052 50.7069 3.25157 50.3706C3.00021 50.1927 2.76244 49.8985 2.73866 49.5912C2.73527 49.5363 2.72847 49.0997 2.76244 49.0835C3.20742 48.8863 3.48935 48.5111 4.04641 48.7213C4.45402 48.8766 4.68161 49.2258 4.61367 49.6009C4.12794 49.8144 3.42141 49.4975 3.75769 48.9057C3.75769 48.9057 3.7475 48.9218 3.73391 48.9509C3.74071 48.938 3.7509 48.9218 3.75769 48.9057C3.55728 49.2549 3.03078 49.8823 3.65579 50.1636C4.22304 50.4191 4.5865 49.8629 4.82427 49.4813C4.83786 49.4619 4.84805 49.4425 4.85824 49.4231C4.86164 49.4166 4.86843 49.4101 4.87183 49.4069C4.87183 49.4069 4.86843 49.4134 4.86503 49.4166C5.35077 48.5241 4.14492 47.9743 3.25497 48.4562C2.23255 49.0092 1.97779 50.4644 3.17684 51.0109C4.11775 51.4377 5.17753 51.082 5.80933 50.3706C7.60961 48.3397 6.31205 45.9661 5.6327 43.7574C5.25566 42.5383 4.75973 41.3838 4.82767 39.9933C4.88541 38.8194 5.30321 37.8783 5.84669 37.1895C6.27129 38.3019 6.56681 39.4338 6.43433 40.6917C6.34262 41.5843 5.98936 42.5189 5.53419 43.3209C5.54778 43.3403 5.56476 43.3726 5.58514 43.4211C6.26449 42.2634 6.60417 40.9569 6.59398 39.7572C6.58719 38.787 6.37659 37.8266 6.09805 36.8952C6.79439 36.1612 7.62999 35.7957 8.20065 35.8442C9.1891 35.9283 9.9194 36.8047 10.1028 37.6811C10.31 38.6641 9.4031 41.2674 7.10689 41.5034C8.72035 41.4097 9.69522 40.433 10.2285 39.0554C10.6735 37.9042 10.541 36.284 9.33516 35.5952C8.12931 34.9032 6.80118 35.7602 6.02332 36.643C6.02332 36.643 6.02332 36.643 6.02332 36.6462C6.00634 36.5913 5.98936 36.5363 5.97237 36.4813C5.28963 34.3567 4.11095 32.2385 4.0566 29.9781C4.02943 28.7751 4.45402 27.7953 5.2149 26.8477C5.26925 26.7798 5.32359 26.7152 5.38134 26.6537C5.92822 27.5139 6.7808 28.1219 7.85757 28.248C8.68298 28.3482 9.53557 28.0734 9.93299 27.3425C10.2387 26.7798 10.1708 26.0587 9.75636 25.5639C9.13475 24.8201 7.98665 24.943 7.16464 25.2535C6.47849 25.5122 5.89085 25.9552 5.40512 26.492C5.29642 26.3239 5.19791 26.1428 5.11639 25.9487C4.86503 25.3634 4.76653 24.6746 5.02128 24.0764C5.06204 23.9793 5.12658 23.8759 5.19112 23.7853C5.16734 23.7821 5.14017 23.7788 5.09601 23.7594C4.58989 24.5194 4.81068 25.593 5.2081 26.3562C5.24547 26.4306 5.28963 26.5049 5.33378 26.5761C4.95674 27.0062 4.64424 27.4913 4.39968 27.9796C3.45877 29.8649 3.91734 32.3194 4.59669 34.1724L4.59329 34.1659ZM5.45607 26.5696C6.27468 25.7159 7.47714 25.1662 8.74752 25.3958C9.58992 25.5478 10.1606 26.0781 10.0213 26.8704C9.85147 27.8179 8.79168 27.9731 7.88135 27.8987C6.80458 27.8147 5.98936 27.3458 5.45607 26.5696ZM3.58446 49.2097C3.58446 49.2097 3.59125 49.1967 3.59804 49.187C3.59465 49.1967 3.58785 49.2032 3.58446 49.2097ZM3.67277 49.0544C3.68975 49.0253 3.71013 48.993 3.73052 48.9542C3.71353 48.98 3.69315 49.0188 3.67277 49.0544ZM3.60484 49.1741C3.60484 49.1741 3.62522 49.1385 3.6388 49.1159C3.62522 49.1385 3.61503 49.1579 3.60484 49.1741ZM7.06273 23.5492C7.0933 23.2744 6.93366 22.9284 6.65172 22.854C6.30186 22.7634 5.89425 23.0027 5.58175 23.255C5.57835 23.2453 5.57156 23.2356 5.56816 23.2259C5.23188 22.4433 5.79235 21.2856 6.61776 20.9751C6.60757 21.1142 6.61776 21.2532 6.65172 21.3955C6.75363 21.7771 7.14425 22.2007 7.59263 22.107C7.91192 22.0391 8.02401 21.6348 7.94249 21.3761C7.82361 20.9978 7.34806 20.7293 6.95064 20.739C6.86572 20.739 6.7808 20.7585 6.70268 20.7876C6.7876 20.2928 7.14765 19.8271 7.18502 19.3226C7.21559 18.8828 7.04575 18.0582 6.41735 18.194C6.18637 18.2425 5.82631 18.5659 5.70403 18.7503C6.0505 18.3428 6.50227 18.1908 6.81817 18.5012C7.16124 18.8343 7.07972 19.4326 6.95404 19.8271C6.85213 20.1537 6.69928 20.4771 6.63814 20.8102C6.39357 20.9137 6.17618 21.1045 6.00974 21.2791C5.51381 21.7965 5.23188 22.6405 5.50702 23.3164C5.4255 23.3843 5.21829 23.5913 5.20131 23.6107C5.23188 23.6236 5.25226 23.6301 5.29302 23.6333C5.36096 23.5622 5.46965 23.4684 5.55118 23.4069C5.55457 23.4167 5.56137 23.4264 5.56476 23.4361C5.61911 23.5395 5.70403 23.6236 5.80933 23.7142C5.88406 23.7206 5.92822 23.7239 5.96218 23.7142C5.85688 23.6172 5.69384 23.4555 5.6327 23.352C5.90444 23.1677 6.22034 23.0512 6.53284 23.0642C7.00838 23.0836 7.17143 23.7109 6.72645 23.9082C6.52944 23.9955 6.31884 23.9599 6.12862 23.8532C6.06748 23.8629 6.02672 23.8662 5.98256 23.8597C6.40376 24.0925 6.9948 24.141 7.06273 23.5525V23.5492ZM6.68569 20.9525C6.68569 20.9525 6.69588 20.9492 6.70268 20.946C7.17483 20.8037 7.92891 21.1691 7.88475 21.693C7.86097 21.955 7.54847 22.0326 7.32768 21.9808C6.93705 21.8903 6.70607 21.4311 6.68569 21.0851C6.68569 21.0398 6.68569 20.9945 6.68569 20.9492V20.9525ZM3.50633 43.2659C3.87997 44.0582 3.49954 45.1447 2.47711 45.1609C3.47916 45.0445 3.91054 43.6572 3.06135 43.0492C2.23255 42.4574 1.07765 42.5868 0.473027 43.35C-0.0398832 44 -0.070454 44.8246 0.557946 45.4002C1.04028 45.8432 1.72983 46.0405 2.39219 45.9467C3.38744 45.8077 4.20266 45.1512 4.7937 44.4106C4.95674 44.2069 5.12658 43.9159 5.27264 43.696C5.28283 43.7251 5.30661 43.8027 5.3168 43.835C4.47101 45.1544 3.05796 46.6388 1.37656 46.0922C0.850067 45.9208 0.326966 45.4487 0.112971 44.9507C-0.185944 44.2554 0.140145 43.447 0.717593 42.9716C1.48866 42.3378 3.0172 42.2375 3.50633 43.2659ZM34.889 51.3084C34.9127 51.0756 34.9875 50.8169 35.0826 50.5776C35.1267 50.5582 35.1743 50.5614 35.2116 50.5614C35.0996 50.8427 34.9943 51.2082 34.9807 51.4863C34.9229 52.7248 36.0133 54.0313 37.0561 54.7233C37.0255 54.7427 37.0085 54.7718 36.9508 54.7912C35.8231 54.0507 34.7463 52.6537 34.8923 51.3084H34.889ZM37.7083 48.5661C38.8598 48.5855 39.8278 49.4716 40.12 50.4741C40.0011 50.4288 39.855 50.4288 39.7599 50.432C39.5085 49.4554 38.7035 48.5693 37.5758 48.6664C36.5975 48.7504 35.7144 49.546 35.2728 50.4353C35.2388 50.432 35.1811 50.4417 35.1471 50.445C35.6159 49.4683 36.6145 48.5467 37.7083 48.5661ZM39.821 51.344C39.8448 51.1273 39.8346 50.8977 39.7939 50.6681C39.7939 50.6681 39.7973 50.6681 39.8007 50.6681C39.9331 50.6681 40.1064 50.6972 40.1845 50.736C40.2151 50.9042 40.2253 51.0756 40.2117 51.2405C40.086 52.8251 37.8781 54.4646 37.1886 54.9077C35.497 56.2917 27.4806 58.4228 25.8434 53.0902C25.9419 53.1226 25.9861 53.1355 26.054 53.1485C27.2972 57.6014 34.9773 56.1818 37.0085 54.8042C37.0629 54.7686 39.6614 52.8639 39.821 51.344ZM54.9943 55.1793C54.9468 55.1114 54.889 55.0111 54.9332 54.9303C54.9638 54.8721 55.1948 54.7621 55.2355 54.8527C55.5922 55.2892 56.3836 55.4574 57.0562 55.2957C57.7219 55.1372 58.2756 54.5034 58.3945 53.847C58.5304 53.0935 58.0582 52.3206 57.3347 52.0069C57.1173 51.9131 56.8252 51.9519 56.5908 51.9455C56.2817 51.939 55.9658 51.9131 55.6805 51.7967C55.3646 51.6674 55.0555 51.4022 54.9774 51.0723C54.923 50.8363 54.9298 50.5258 54.6139 50.4741C54.9162 50.9915 54.4033 52.4726 52.9461 52.0263C52.7932 51.981 52.8238 51.8129 52.8476 51.6771C52.9223 51.2405 52.3415 50.0893 50.137 51.2082C48.8734 51.8485 47.5656 52.5437 46.4515 53.3974C45.925 53.8017 45.4019 54.2124 44.8211 54.5519C42.8747 55.6838 40.6023 55.8034 38.425 55.2601C38.1057 55.1793 37.5554 55.0596 37.2259 54.9465C37.2803 54.9174 37.2871 54.8979 37.3278 54.8591C38.0683 55.092 38.7409 55.1275 39.05 55.1372C39.5561 55.1534 40.0622 55.1114 40.5615 55.0241C41.4345 54.8688 42.2735 54.5681 43.0649 54.1865C43.0751 54.1542 43.2721 53.6562 43.3197 53.4201C43.6967 51.593 43.3842 50.9753 42.4298 50.2251C41.8659 49.8596 42.2293 49.6268 42.6064 49.9405C43.3435 50.542 43.7511 51.2502 43.6865 52.1557C43.656 52.6246 43.5337 53.0838 43.3707 53.5268C43.2959 53.7273 43.194 53.9472 43.0921 54.1703C43.228 54.0766 43.2959 53.9957 43.3639 53.8955C43.4895 53.6432 43.5914 53.4201 43.605 53.378C43.8836 52.6795 44.016 51.9196 43.9277 51.1726C43.8462 50.4514 43.673 49.4198 42.175 48.6534C41.6553 48.3883 41.9814 48.1328 42.2022 48.2654C43.4556 48.8636 44.1281 50.044 44.1383 51.3666C44.1451 52.1007 43.8971 52.9188 43.5269 53.7014C43.9787 53.2131 44.1519 52.783 44.1961 52.6601C44.5323 51.7547 44.6105 50.7522 44.3625 49.8176C44.1213 48.9154 43.7171 47.6703 41.8047 46.7681C41.2273 46.4965 41.5398 46.034 41.9202 46.283C43.3944 47.1174 44.3931 48.4626 44.6308 50.0957C44.7429 50.8524 44.6546 51.6318 44.4101 52.3594C44.478 52.2171 44.5391 52.0716 44.5901 51.9228C44.9841 50.8395 45.0079 49.6559 44.6512 48.5597C44.298 47.4763 43.5914 46.5029 42.6437 45.8174C42.1716 45.4746 40.5344 44.5885 38.7952 45.0671C38.571 45.1286 38.2246 45.3226 38.0513 45.1221C37.8339 44.8699 38.391 44.5529 39.4202 44.6338C41.0812 44.7631 42.0459 45.3161 42.5181 45.6233C43.5099 46.2733 44.2504 47.2694 44.6512 48.3527C45.052 49.4101 45.0894 50.5775 44.7701 51.6576C44.7022 51.8905 44.6139 52.1201 44.5154 52.3432C44.5357 52.3077 44.5493 52.2818 44.5527 52.2753C44.9671 51.3957 45.3713 50.2865 45.3374 49.3196C45.3034 48.3494 45.2049 47.5604 44.7124 46.7519C43.8088 45.2611 42.7762 44.6564 42.1037 44.2198C41.8659 44.0646 41.9508 43.7024 42.5894 44.1131C42.4671 44.0226 42.5622 44.0937 42.5962 44.1164C44.033 45.0413 44.5663 46.2927 44.7871 46.6873C45.2321 47.486 45.4461 48.3786 45.4189 49.284C45.3917 50.2348 45.1166 51.1629 44.7361 52.036C44.6241 52.2947 44.5018 52.5502 44.3693 52.7992C44.4474 52.6957 44.5221 52.589 44.5935 52.4823C44.6274 52.4208 44.6614 52.3594 44.6954 52.2947C45.2491 51.2082 45.5921 50.0149 45.6601 48.8086C45.728 47.6445 45.5242 46.4641 45.0045 45.4034C44.7531 44.8925 43.4046 43.24 42.0493 42.6126C41.8591 42.5253 41.584 42.4089 41.5364 42.1858C41.4719 41.8915 41.9814 42.0499 42.0935 42.1179C43.5507 43.0007 44.4814 44.3266 44.9535 45.1997C45.5174 46.2475 45.7688 47.4246 45.7416 48.5985C45.7178 49.6786 45.4631 50.7522 45.0419 51.7579C45.0792 51.69 45.1132 51.6253 45.1472 51.5574C45.6703 50.529 45.9284 49.4134 45.9624 48.2751C45.9861 47.4505 45.677 42.8261 42.0493 40.9408C41.3462 40.5753 40.463 40.6465 39.7463 40.986C39.0262 41.3288 38.4454 42.092 38.7409 42.8811C38.9854 43.5343 40.0215 44.1196 40.5344 43.3726C40.6872 43.1495 40.6974 42.8552 40.4562 42.6806C40.3068 42.5706 40.0962 42.5577 39.9773 42.7194C39.855 42.8875 40.086 42.9651 40.0622 43.0298C40.035 43.1042 39.8584 42.8617 39.872 42.7808C39.9094 42.6127 40.0758 42.4898 40.2558 42.493C40.6465 42.4962 40.8876 42.9037 40.8061 43.2368C40.5989 44.0582 39.6003 44.1099 38.9888 43.6766C38.3469 43.2174 38.1702 42.3895 38.5065 41.7104C38.5167 41.691 38.5269 41.6716 38.5371 41.6522C38.1974 42.0112 37.9053 42.4251 37.603 42.8131C36.7809 43.8641 35.7789 44.4009 34.7361 44.5044C33.5031 44.6241 32.5112 43.9094 32.2429 42.8584C32.0085 41.94 32.4535 40.7467 33.3808 40.2972C33.8563 40.0676 34.4881 40.0191 34.9433 40.3199C35.4053 40.6206 35.6634 41.303 35.3135 41.7719C35.001 42.189 34.1077 42.2537 34.0601 41.6069C34.0432 41.3741 34.2606 41.1218 34.5255 41.2092C34.6478 41.248 34.7395 41.387 34.6818 41.5099C34.6308 41.6199 34.3896 41.649 34.4134 41.4873C34.393 41.6748 34.7938 41.5843 34.6546 41.3385C34.5493 41.1477 34.2606 41.2156 34.1553 41.3676C34.033 41.5455 34.1145 41.7977 34.2741 41.9271C34.4576 42.0791 34.7293 42.0726 34.9399 41.982C35.4121 41.7815 35.4834 41.2318 35.2762 40.8243C35.069 40.4136 34.6274 40.2067 34.162 40.2164C33.1566 40.239 32.4705 41.0701 32.5146 41.9918C32.5588 42.9296 33.2517 43.7542 34.213 43.9741C35.3849 44.2425 36.4107 43.5666 37.2021 42.8228C37.6132 42.438 37.9902 42.0176 38.391 41.6231C38.5676 41.4517 38.7782 41.235 39.016 41.0701C39.4508 40.7079 40.0282 40.501 40.5989 40.4492C42.4094 40.2875 44.0466 41.7783 44.9128 43.1462C45.3102 43.7736 45.6023 44.4527 45.8095 45.1577C45.8095 45.0121 45.8095 44.8699 45.8095 44.7243C45.8435 43.2918 46.5194 41.6231 48.0989 41.1768C49.4508 40.792 51.1968 41.332 51.8354 42.5835C52.4638 43.8124 51.7504 45.4584 50.3544 45.8497C49.7532 46.0179 49.0772 45.9241 48.6118 45.5069C48.1363 45.0833 47.9936 44.3945 48.4454 43.8997C48.656 43.6669 48.9651 43.5246 49.2912 43.5957C49.6479 43.6733 49.957 44.0064 49.8449 44.3654C49.7565 44.6499 49.4067 44.8407 49.1282 44.6532C48.7885 44.4236 49.1825 44.0355 49.3795 44.3072C49.5426 44.194 49.3048 44.0258 49.1961 44.0032C49.0195 43.9644 48.8598 44.0743 48.7579 44.2004C48.5303 44.4786 48.5881 44.8408 48.8157 45.0995C49.298 45.646 50.1777 45.6039 50.7484 45.2126C51.3191 44.8213 51.6757 44.1261 51.635 43.4567C51.5908 42.7226 51.0677 42.1179 50.3951 41.7977C49.675 41.4517 48.7579 41.3579 48.0038 41.6587C47.2973 41.94 46.7742 42.6191 46.5093 43.2853C46.0133 44.54 46.319 45.9564 46.3802 47.2597C46.4413 48.5305 46.3258 49.8014 45.8639 51.0012C45.711 51.3957 45.5276 51.7773 45.317 52.146C45.891 51.3989 46.4753 50.6584 47.0969 49.947C48.1159 48.7795 49.2402 47.6801 50.548 46.8005C51.156 46.3898 51.798 46.0308 52.4774 45.7365C52.5453 45.7074 53.1193 45.4843 53.5439 45.3388C53.6424 45.1932 53.9923 45.0509 54.1316 44.9701C54.4678 44.7728 54.8211 44.5917 55.188 44.4559C55.4631 44.3557 55.7892 44.3751 55.9319 44.6597C56.0745 44.941 55.8843 45.2967 55.5616 45.3549C55.6227 45.3452 54.8755 45.342 54.563 45.3355C54.2573 45.3291 53.9481 45.3355 53.6424 45.3452C53.2484 45.4972 52.6778 45.7236 52.6064 45.7559C51.9746 46.0405 51.3734 46.3801 50.8027 46.7649C49.5358 47.6121 48.442 48.6696 47.4502 49.7982C46.6961 50.6552 46.0031 51.5574 45.317 52.4661C45.5819 52.2042 45.8537 51.9455 46.1288 51.6932C47.2124 50.7004 48.3707 49.7723 49.6139 48.9639C50.9556 48.0907 52.4332 47.3276 54.0263 46.9751C54.7736 46.8101 55.5514 46.739 56.3157 46.8231C56.3904 46.8296 57.902 47.0786 58.1465 47.1206C58.6085 47.1982 59.0671 47.3405 59.4849 47.5442C59.7974 47.6962 60.0963 47.9485 59.9706 48.3204C59.8449 48.6955 59.2505 48.896 58.9957 48.5855C59.0671 48.6696 58.5134 48.0034 58.2518 47.7577C57.5725 47.1174 56.5806 46.9233 56.5093 46.9136C55.7926 46.8263 55.0657 46.8748 54.3625 47.0171C52.8544 47.3179 51.4515 48.0099 50.1744 48.8086C48.9549 49.5718 47.8238 50.4611 46.7606 51.4087C46.2511 51.8646 45.7586 52.3335 45.2796 52.8186C45.2185 52.8833 45.1573 52.9479 45.0962 53.0126C45.8367 52.5081 46.5432 51.9584 47.2463 51.4054C48.0582 50.7684 48.9345 50.238 49.8551 49.7562C51.139 49.0868 52.5385 48.5273 54.0093 48.4044C55.5888 48.2718 57.2226 48.7084 58.3673 49.7885C59.4747 50.833 60.3205 52.7377 59.6309 54.0636C58.9414 55.3895 57.1649 56.4534 55.6873 55.7614C55.4189 55.6353 55.1506 55.4348 54.9876 55.1922L54.9943 55.1793ZM25.9827 52.6019C25.9215 52.5858 25.8434 52.5599 25.7857 52.5373C25.823 52.0619 26.088 51.538 26.5227 51.2793C26.8352 51.095 27.321 51.0044 27.6607 51.1694C27.9867 51.3278 27.929 51.6221 27.7354 51.8582C27.6471 51.9681 27.6063 52.0392 27.4704 51.9649C27.338 51.8937 27.4704 51.8711 27.5418 51.8711C27.7999 51.8711 27.8373 51.4119 27.6708 51.2987C27.3549 51.082 26.8319 51.2081 26.5363 51.3989C26.2714 51.5703 25.9589 52.0457 25.9793 52.6052L25.9827 52.6019ZM51.7199 52.5599C51.6995 52.5599 51.7844 52.5858 51.7199 52.5599V52.5599ZM38.2891 56.1785C38.639 56.3532 39.478 56.6442 39.5765 56.6701C40.3034 56.8641 41.0643 56.8932 41.8115 56.7833C43.3842 56.5504 44.8109 55.7484 46.0982 54.8947C47.3381 54.0733 48.4794 53.1032 49.7735 52.3594C50.3306 52.0392 50.9964 51.7159 51.6689 51.7967C51.9067 51.8258 52.2226 51.9067 52.2905 52.1621C52.3721 52.4467 51.9712 52.6601 51.7199 52.5599C51.5466 52.5502 51.4074 52.4887 51.2206 52.5114C50.9658 52.5405 50.7212 52.6343 50.4902 52.7345C49.8992 52.9868 49.3557 53.3328 48.819 53.6756C47.6404 54.4258 46.4923 55.2181 45.2423 55.8616C44.016 56.4922 42.6675 56.9935 41.2579 56.9999C40.6159 57.0032 39.9739 56.8965 39.3727 56.683C39.2878 56.6539 38.6016 56.3532 38.2925 56.1785H38.2891ZM42.0969 42.1211C41.8591 41.9853 42.2158 42.1858 42.0969 42.1211V42.1211ZM37.8985 50.9656C37.5452 51.7417 36.3122 52.2365 35.5004 51.8937C35.4902 51.8905 35.48 51.884 35.4698 51.8808C35.7449 51.593 36.0099 51.2114 35.925 50.8751C35.857 50.6067 35.5004 50.4417 35.2082 50.4611C34.5866 50.5064 34.6206 51.0691 34.8482 51.4766C34.8414 51.4345 34.8482 51.3957 34.8618 51.3375C34.7531 51.1532 34.7259 50.9495 34.821 50.7651C35.0418 50.3512 35.694 50.5258 35.7008 50.9785C35.7042 51.2761 35.5717 51.5736 35.3713 51.8258C35.2626 51.7611 35.0996 51.6027 35.001 51.4992C34.9875 51.5315 34.9909 51.5703 34.9943 51.6447C35.0826 51.7482 35.1709 51.829 35.2762 51.884C35.2864 51.8905 35.2966 51.8937 35.3068 51.897C35.2388 51.9713 35.1369 52.0716 35.0588 52.133C35.0588 52.1718 35.069 52.1912 35.0792 52.2203C35.0996 52.2042 35.3237 52.0134 35.3985 51.939C36.0982 52.2236 36.9949 51.981 37.552 51.5283C37.7388 51.3763 37.9494 51.1726 38.0649 50.9462C38.4182 50.9009 38.7613 50.7651 39.1077 50.6778C39.5255 50.5711 40.1539 50.5161 40.4936 50.8524C40.8095 51.1629 40.6363 51.5897 40.1947 51.9034C40.3951 51.7935 40.7416 51.4604 40.8027 51.2437C40.9658 50.6487 40.1064 50.4611 39.6444 50.4773C39.1145 50.4967 38.6118 50.8233 38.0921 50.888C38.1227 50.8104 38.1464 50.7328 38.1498 50.6519C38.1736 50.2736 37.9053 49.8111 37.5112 49.685C37.2395 49.5977 36.8115 49.6915 36.73 49.9955C36.6145 50.4223 37.0493 50.8072 37.4467 50.9139C37.5962 50.9559 37.7422 50.9656 37.8849 50.9624L37.8985 50.9656ZM37.783 50.9009C37.4195 50.8718 36.9474 50.6358 36.8659 50.2639C36.8183 50.0504 36.9066 49.7562 37.1852 49.7432C37.7388 49.7174 38.0955 50.4482 37.9324 50.8912C37.9324 50.8977 37.9291 50.9009 37.9257 50.9074C37.8781 50.9074 37.8305 50.9074 37.7864 50.9042L37.783 50.9009ZM13.8562 51.4669C13.8868 51.4766 13.9683 51.5024 13.9989 51.5121C13.7645 51.6415 13.452 51.7967 13.2346 51.9422C12.4364 52.4823 11.7231 53.2358 11.5465 54.18C11.4276 54.8074 11.611 55.4703 12.0628 55.9425C12.647 56.5601 13.5132 56.5569 14.2129 56.0912C15.0349 55.5415 15.2082 54.4452 14.6137 53.6368C14.0023 52.8089 12.5315 53.1743 12.3753 54.1218C12.4262 53.1517 13.5777 52.8218 14.3963 53.2034C15.4629 53.7014 15.3067 55.1534 14.6171 55.8681C14.1008 56.4017 13.2414 56.6863 12.5213 56.379C12.005 56.1591 11.5261 55.645 11.363 55.1405C10.8399 53.5236 12.4466 52.2268 13.8596 51.4636L13.8562 51.4669ZM6.2611 53.2713C6.79439 54.4291 8.32972 54.2318 8.94454 53.2778C9.48122 52.4467 8.94114 51.2825 7.99005 51.7159C7.99005 51.7159 7.99684 51.7126 8.00024 51.7094C7.99344 51.7126 7.98665 51.7159 7.97986 51.7223C7.95948 51.732 7.9391 51.7417 7.91871 51.7514C7.5111 51.9681 6.91328 52.2947 7.16464 52.8412C7.43977 53.4427 8.11573 52.9641 8.48937 52.783C8.47578 52.7895 8.4622 52.796 8.44861 52.8024C8.47239 52.7895 8.48937 52.783 8.48937 52.783C7.85757 53.0838 7.54847 52.4014 7.78624 51.9455C8.18366 51.8937 8.54372 52.1233 8.69318 52.5146C8.89698 53.0514 8.49277 53.3069 8.27198 53.7241C8.25499 53.7564 7.79304 53.737 7.73869 53.7305C7.416 53.7014 7.11708 53.4621 6.93705 53.2196C6.59738 52.7539 6.5736 52.0489 6.74344 51.5218C7.07292 50.5161 8.26518 50.1572 9.27062 50.2445C10.6463 50.3641 12.1511 50.8815 13.4622 51.2825C14.8141 51.6965 15.9351 52.1427 17.5315 52.2786C18.8053 52.3885 20.0383 51.9681 21.0947 51.2664C22.0492 51.6447 22.9935 52.0974 23.9956 52.4661C25.9181 53.1711 28.4827 53.6885 30.4902 52.8542C31.0133 52.6375 31.5296 52.3562 31.9949 52.0101C32.0696 52.0522 32.1444 52.0942 32.2225 52.1363C33.0105 52.5373 34.1315 52.783 34.9433 52.327C34.9229 52.2818 34.9229 52.2591 34.9195 52.2365C34.821 52.2947 34.7089 52.3529 34.607 52.3917C33.9684 52.6149 33.2517 52.4985 32.6437 52.2397C32.4433 52.1557 32.2565 52.0554 32.0832 51.9455C32.6607 51.4992 33.1464 50.9527 33.4385 50.3091C33.7918 49.5363 33.9548 48.4497 33.194 47.832C32.6879 47.4213 31.9338 47.334 31.3326 47.6089C30.5513 47.9614 30.2354 48.7666 30.3135 49.5524C30.412 50.5808 31.0234 51.4119 31.9066 51.9584C31.8387 52.0101 31.7673 52.0619 31.696 52.1104C30.6804 52.8057 29.6342 53.1775 28.374 53.1129C26.003 52.99 23.8189 51.7999 21.611 51.082C21.5533 51.0626 21.4955 51.0465 21.4378 51.0271C21.4378 51.0271 21.4378 51.0271 21.4412 51.0271C22.3923 50.3156 23.3332 49.0803 22.647 47.9097C21.9609 46.7422 20.2625 46.5612 19.0431 46.946C17.5791 47.4084 16.5227 48.301 16.3698 49.837C16.6925 47.6607 19.4541 46.8845 20.4799 47.1109C21.3936 47.3146 22.2904 48.039 22.3447 48.98C22.3753 49.5233 21.9677 50.3059 21.1729 50.9462C20.2048 50.6487 19.2027 50.4191 18.1837 50.3803C16.9235 50.3318 15.541 50.6131 14.3046 51.2211C14.3556 51.2405 14.3895 51.2599 14.4099 51.2728C15.2659 50.8686 16.2577 50.5614 17.1987 50.5032C18.5234 50.4191 19.7021 50.736 20.857 51.1758C20.1165 51.6738 19.1178 52.0392 17.8814 52.0554C16.4174 52.0748 15.2251 51.5639 13.9548 51.1694C11.6585 50.4514 9.20948 49.1417 7.01857 50.7878C6.24751 51.3666 5.8399 52.3626 6.2611 53.2746V53.2713ZM31.9949 51.8905C31.1967 51.3569 30.7313 50.5678 30.677 49.5395C30.6328 48.6728 30.8298 47.6671 31.8285 47.5378C32.6641 47.4278 33.2008 47.9905 33.3332 48.7957C33.5336 50.0116 32.9188 51.137 31.9949 51.8905ZM8.42823 52.8121C8.42823 52.8121 8.41464 52.8186 8.40785 52.8218C8.41464 52.8186 8.42143 52.8154 8.42823 52.8121ZM8.40105 52.8251C8.37728 52.838 8.3535 52.8477 8.33312 52.8574C8.3569 52.8445 8.38067 52.8348 8.40105 52.8251ZM8.20744 52.9156C8.20744 52.9156 8.2448 52.8995 8.26518 52.8898C8.24141 52.8995 8.22442 52.9091 8.20744 52.9156ZM8.16328 52.935C8.16328 52.935 8.18027 52.9286 8.19046 52.9221C8.18027 52.9286 8.17008 52.9318 8.16328 52.935ZM15.7584 41.6554C16.7299 42.6126 14.1314 44.1649 14.1314 44.1649C14.573 43.9611 15.3406 44.1649 15.4561 44.8634C15.5886 45.6654 13.6558 46.3865 12.4941 46.8393C11.8963 47.0721 10.6735 47.6315 9.62728 48.1199C11.3257 47.4343 13.88 46.7519 14.3861 47.7221C13.6355 47.8288 13.7781 48.2524 13.7781 48.2524C15.3304 48.5791 15.0383 50.4708 13.9072 50.4611C14.1076 49.297 9.84128 47.9711 6.80118 50.1442C8.94793 47.2047 7.76246 43.046 6.53624 43.2077C6.55322 42.1276 8.54711 41.898 8.85282 43.3855C8.85282 43.3855 9.2944 43.5343 9.42687 42.8196C10.3338 43.2756 9.79033 45.2838 9.11437 46.8457C9.66804 45.8529 10.1979 44.844 10.2659 44.6467C10.4017 44.249 11.4344 41.6166 12.4704 41.9271C13.255 42.1631 13.1939 42.8034 13.1361 43.0557C13.3705 42.4251 14.8413 40.7564 15.7584 41.6554Z" fill="#D3B358"/>
<path id="Vector_2" d="M3.81912 53.9985C4.48524 53.1941 4.37556 51.7532 4.37556 51.7532C4.37556 51.7532 3.18242 51.6208 2.5163 52.4252C1.85017 53.2296 1.95986 54.6705 1.95986 54.6705C1.95986 54.6705 3.15299 54.8029 3.81912 53.9985Z" fill="#D3B358"/>
</g>
</svg>
