<svg width="60" height="57" viewBox="0 0 60 57" fill="none" xmlns="http://www.w3.org/2000/svg">
<g id="Group 1000005982">
<path id="Vector" d="M54.0208 33.2632C55.3218 33.2503 56.6601 34.3271 57.3497 35.3425C57.37 35.3167 57.404 35.3005 57.4244 35.2423C56.6805 34.146 55.2539 33.0756 53.834 33.1694C53.5894 33.1856 53.3143 33.247 53.0596 33.3279C53.0392 33.3699 53.0392 33.4152 53.0392 33.4508C53.3381 33.3537 53.7253 33.2632 54.0208 33.26V33.2632ZM50.9705 35.64C50.8347 36.7104 51.7382 37.506 52.7538 37.7744C52.747 37.8649 52.7437 38.004 52.7878 38.1172C51.745 37.81 50.8483 36.8592 50.8652 35.7629C50.8788 34.7249 51.8775 33.8 52.9203 33.3861C52.9169 33.4184 52.9033 33.4734 52.9067 33.5057C51.959 33.897 51.0928 34.7087 50.9739 35.64H50.9705ZM53.5928 38.2303C53.4162 38.2368 53.2396 38.2239 53.0629 38.1883C53.0256 38.1107 53.0018 37.9458 53.0052 37.8197C53.0052 37.8197 53.0052 37.8164 53.0052 37.8132C53.2464 37.8585 53.4875 37.8779 53.7151 37.8617C55.315 37.7582 57.4006 35.3458 57.438 35.2973C58.9529 33.4087 60.6887 26.1455 56.0555 24.8197C56.0419 24.7582 56.0317 24.713 56.0011 24.6192C61.548 26.3493 59.0514 33.91 57.5433 35.4751C57.0575 36.1154 55.264 38.1657 53.5962 38.2336L53.5928 38.2303ZM49.8734 56.9445C49.4794 57.0544 49.2246 56.7602 49.0752 56.4594C48.8747 56.0552 48.7389 55.6154 48.6709 55.1724C48.637 54.9395 48.423 53.4908 48.4162 53.4196C48.3516 52.6888 48.4502 51.9515 48.6506 51.2465C49.0718 49.7395 49.9209 48.3587 50.8788 47.1104C51.7654 45.9527 52.7776 44.8823 53.8578 43.8831C54.1329 43.6276 54.4115 43.3786 54.6934 43.1328C53.7185 43.7537 52.7504 44.3876 51.8231 45.0764C50.6071 45.9818 49.4624 46.9908 48.5283 48.1679C48.1071 48.6983 47.7334 49.2609 47.4107 49.8527C47.3734 49.9206 47.1186 50.4574 46.9454 50.8261C46.9216 51.1171 46.908 51.4114 46.9046 51.7025C46.9012 52.0032 46.8809 52.7114 46.8944 52.6532C46.8231 52.9572 46.4461 53.1286 46.1539 52.9831C45.8584 52.8375 45.8482 52.5271 45.9637 52.2684C46.12 51.9224 46.3204 51.5925 46.5378 51.2788C46.6295 51.1463 46.7891 50.8196 46.9454 50.7291C47.1152 50.3313 47.3632 49.7945 47.3972 49.7266C47.73 49.0928 48.1275 48.4913 48.5758 47.9254C49.5405 46.7127 50.7294 45.6746 51.9896 44.7433C52.7572 44.1741 53.5521 43.6438 54.3571 43.1199C53.9631 43.3075 53.5555 43.4724 53.1377 43.605C51.8605 44.006 50.5256 44.0739 49.1906 43.9769C47.8252 43.8766 46.3476 43.5403 45.016 43.9704C44.3095 44.2 43.5792 44.6754 43.2599 45.3383C42.9202 46.0465 42.9916 46.9229 43.3278 47.6182C43.6437 48.2682 44.262 48.7856 45.0296 48.8502C45.7294 48.9117 46.4732 48.5948 46.9012 48.0644C47.3292 47.5341 47.404 46.6965 46.8469 46.2211C46.5819 45.9948 46.2083 45.9301 45.906 46.1371C45.7701 46.2308 45.6512 46.3796 45.6852 46.5478C45.7056 46.6512 45.872 46.8841 45.9977 46.7321C45.7192 46.5348 46.1404 46.1726 46.3713 46.5057C46.5582 46.7774 46.3442 47.104 46.0452 47.1784C45.6648 47.2754 45.3217 46.9682 45.2538 46.6254C45.1927 46.3149 45.3489 46.0239 45.6003 45.8331C46.1336 45.4191 46.8537 45.5776 47.2817 46.0433C47.7029 46.4992 47.781 47.146 47.584 47.7119C47.1288 49.0281 45.3761 49.6522 44.1057 49.0152C42.8149 48.3684 42.3054 46.69 42.7504 45.4127C43.2735 43.9251 45.0432 43.3333 46.5514 43.3495C46.7042 43.3495 46.8537 43.356 47.0065 43.3624C46.2728 43.1458 45.5697 42.8418 44.9243 42.444C43.5147 41.5774 42.0031 39.9701 42.2307 38.253C42.319 37.603 42.6417 36.9498 43.1852 36.5455C43.4365 36.345 43.7592 36.1963 44.014 36.0702C44.5303 35.8211 45.0602 35.6045 45.5697 35.3425C46.5514 34.8381 47.5296 34.1072 47.6078 32.9625C47.6723 32.0214 47.0473 31.1483 46.12 30.8314C45.2063 30.5177 44.1702 30.8993 43.8509 31.8047C43.7049 32.2251 43.783 32.6876 44.1329 32.998C44.4793 33.3052 45.0534 33.4055 45.3965 33.0336C45.5493 32.8687 45.6342 32.6229 45.5357 32.4127C45.4508 32.2316 45.2232 32.0796 45.0092 32.1411C44.8258 32.1928 44.6696 32.4353 44.8326 32.5873C45.0364 32.7878 45.247 32.4483 45.0534 32.4127C45.2232 32.4386 45.1247 32.6488 44.999 32.6649C44.8632 32.6811 44.7477 32.555 44.7443 32.4353C44.7375 32.1669 45.0534 32.044 45.281 32.1281C45.9162 32.361 45.5867 33.1565 45.0772 33.3149C44.5065 33.4928 43.8985 33.0562 43.7321 32.5485C43.5656 32.044 43.8 31.4846 44.1736 31.1192C44.8971 30.4077 46.2287 30.356 47.0813 30.8411C48.0561 31.3973 48.4807 32.5097 47.9984 33.5931C47.5908 34.5115 46.7518 35.2649 45.4576 35.7015C45.0092 35.8535 44.5371 35.9861 44.0989 36.1736C44.7001 36.096 45.3183 36.3192 45.6852 36.8172C46.12 37.409 46.0317 38.3597 45.1655 38.5311C44.8122 38.6022 44.3944 38.3565 44.4012 37.9846C44.4046 37.8132 44.5371 37.658 44.7171 37.6289C44.802 37.6159 45.05 37.7938 44.9719 37.8164C44.9039 37.8391 44.8258 37.6159 44.6492 37.7259C44.4759 37.8326 44.4861 38.0363 44.5948 38.1786C44.7715 38.4147 45.0806 38.4147 45.3217 38.2756C46.1234 37.81 45.5425 36.8042 44.8632 36.552C44.048 36.2448 43.2259 36.7719 42.8421 37.4478C42.4617 38.1204 42.3598 38.958 42.7198 39.6371C44.5846 43.1522 49.4284 43.5953 50.2946 43.5985C51.4902 43.6017 52.6689 43.3948 53.7661 42.9291C53.8374 42.9 53.9087 42.8677 53.9801 42.8353C52.9135 43.204 51.779 43.4109 50.6411 43.398C49.408 43.3851 48.1818 43.1102 47.0982 42.5378C46.1981 42.0624 44.8326 41.1311 43.9562 39.7179C43.8883 39.6112 43.7389 39.1197 44.0446 39.1908C44.2755 39.2425 44.3876 39.5077 44.4759 39.692C45.0874 41.005 46.7823 42.3405 47.3088 42.596C48.406 43.1264 49.639 43.356 50.8652 43.3301C52.1356 43.3042 53.3992 43.0132 54.5575 42.5249C54.6255 42.4958 54.69 42.4667 54.7579 42.4343C54.8734 42.3696 54.9855 42.2985 55.0976 42.2306C54.8293 42.347 54.5575 42.4537 54.2824 42.554C53.3551 42.8871 52.37 43.1199 51.3714 43.1134C50.4203 43.1102 49.4896 42.8774 48.6675 42.4279C48.2599 42.2047 46.9658 41.6582 46.0385 40.2612C46.0147 40.2289 45.9433 40.1351 46.0351 40.2547C45.6241 39.6338 46.0079 39.5659 46.1641 39.7955C46.5989 40.4488 47.2035 41.4512 48.7389 42.3599C49.5745 42.8547 50.3965 42.9711 51.4155 43.039C52.4312 43.1037 53.6064 42.7545 54.5439 42.3891C54.5541 42.3858 54.5779 42.3729 54.6187 42.3567C54.3809 42.444 54.1397 42.5184 53.8918 42.5766C52.747 42.845 51.5242 42.7706 50.4237 42.3567C49.3027 41.9395 48.2769 41.2022 47.6281 40.2386C47.319 39.7794 46.7722 38.8448 46.6872 37.2602C46.6363 36.2803 46.9862 35.7565 47.2443 35.9731C47.4515 36.1445 47.2341 36.4647 47.1628 36.6781C46.6023 38.3177 47.4821 39.9022 47.8251 40.3647C48.5147 41.2896 49.5133 41.9945 50.6411 42.3632C51.779 42.7383 53.0222 42.7545 54.1737 42.4149C54.3299 42.3696 54.4862 42.3147 54.639 42.2565C53.868 42.4667 53.0494 42.5249 52.2545 42.3955C50.5493 42.1142 49.1669 41.1246 48.3381 39.692C48.0867 39.3234 48.5826 39.0421 48.851 39.5983C49.7341 41.448 51.0283 41.8716 51.9692 42.1303C52.9441 42.3987 53.9971 42.3567 54.9583 42.0657C55.0908 42.0269 55.546 41.8749 56.0759 41.4609C55.2437 41.7908 54.3775 42.001 53.6064 41.9686C52.2172 41.9169 50.9977 41.2378 50.4135 40.0251C50.281 39.8117 50.5595 39.5077 50.8211 40.0122C51.5752 41.4642 52.6519 41.6582 53.4094 41.7617C54.1907 41.8684 54.9923 41.7682 55.7362 41.5256C55.7804 41.5127 56.0215 41.4221 56.2865 41.3122C56.3952 41.254 56.4801 41.1925 56.5854 41.0632C56.3476 41.1537 56.1132 41.241 55.8992 41.309C55.4305 41.4545 54.9447 41.5515 54.4488 41.5677C53.4943 41.5968 52.764 41.1861 52.156 40.4682C51.8401 40.0963 52.0949 39.76 52.4583 40.3065C53.2124 41.2378 53.8544 41.558 55.7837 41.2572C56.0351 41.2184 56.5616 41.047 56.5956 41.0373C57.0202 40.2968 57.3632 39.5077 57.5535 38.6831C57.6622 38.2142 57.7233 37.7323 57.7199 37.2505C57.7199 36.9562 57.7063 36.3159 57.4855 35.6012C57.5263 35.5657 57.5467 35.5592 57.5806 35.5075C57.6893 35.8244 57.7946 36.3515 57.8694 36.6587C58.3721 38.7478 58.1717 40.9047 56.9217 42.7189C56.548 43.2589 56.103 43.744 55.6581 44.2323C54.724 45.2639 53.9529 46.4863 53.2396 47.6666C51.9896 49.7298 53.1818 50.3184 53.6438 50.2602C53.7865 50.244 53.9631 50.2214 54.0072 50.3669C54.4284 51.7672 52.8557 52.207 52.3225 51.903C52.3666 52.207 52.6927 52.207 52.9373 52.2684C53.2803 52.3525 53.5487 52.6532 53.6744 52.9604C53.7865 53.2385 53.8068 53.5393 53.8034 53.8303C53.8034 54.0502 53.7491 54.3283 53.8442 54.5385C54.1499 55.237 54.9447 55.7124 55.7396 55.6057C56.4325 55.5119 57.1119 55.0074 57.3021 54.3801C57.4923 53.7462 57.3429 52.9863 56.8979 52.6338C56.8062 52.595 56.9285 52.3783 56.9896 52.3492C57.0745 52.3104 57.1798 52.3686 57.2478 52.4139C57.4991 52.5788 57.6995 52.8376 57.8252 53.0995C58.5012 54.5288 57.3293 56.1813 55.9162 56.7958C54.4998 57.4102 52.5297 56.5435 51.4699 55.4569C50.3761 54.3348 49.9685 52.7632 50.1587 51.2659C50.3354 49.8689 50.9671 48.556 51.7144 47.3562C52.2477 46.4928 52.832 45.6779 53.5283 44.9276C54.1329 44.2776 54.7308 43.6212 55.2844 42.9356C55.2131 42.9906 55.1418 43.0455 55.0738 43.1037C54.5473 43.5435 54.0378 43.9963 53.5453 44.4652C52.5127 45.445 51.5446 46.496 50.7056 47.6311C49.8224 48.8211 49.0514 50.1341 48.6879 51.5602C48.5181 52.2264 48.4434 52.9152 48.5113 53.6007C48.5181 53.6686 48.6913 54.6194 49.3401 55.2855C49.5881 55.541 50.2708 56.0908 50.1859 56.0196C50.5018 56.2719 50.2742 56.8313 49.8734 56.938V56.9445ZM54.1975 25.2239C53.9869 25.4988 53.8374 25.9903 54.0548 26.2975C54.1703 26.4592 54.656 26.4366 54.6594 26.1908C54.6594 26.1261 54.69 26 54.7613 26.1261C54.8327 26.2555 54.7579 26.2943 54.639 26.3752C54.3877 26.5498 54.0752 26.5951 53.9189 26.2814C53.7559 25.9548 53.868 25.4923 54.0718 25.2013C54.3537 24.797 54.9142 24.561 55.4135 24.5416C55.4373 24.5965 55.4611 24.6741 55.4746 24.7291C54.887 24.6903 54.3809 24.9717 54.1907 25.2207L54.1975 25.2239ZM54.6051 49.2221C54.6289 49.2868 54.6051 49.2027 54.6051 49.2221V49.2221ZM53.8068 49.1477C53.7423 48.5042 54.1058 47.8833 54.459 47.3627C55.281 46.1565 56.3374 45.099 57.2376 43.9477C58.1751 42.7512 59.065 41.4189 59.3605 39.9281C59.4998 39.2231 59.493 38.4988 59.3164 37.8003C59.2926 37.7032 59.0141 36.8948 58.8408 36.5585C59.0107 36.8592 59.3062 37.5189 59.3334 37.5998C59.5406 38.1786 59.6323 38.793 59.6085 39.4042C59.5541 40.7463 58.9835 42.0139 58.2838 43.1587C57.5704 44.3261 56.7009 45.3965 55.8755 46.4928C55.4984 46.9908 55.118 47.5017 54.8327 48.0547C54.7206 48.2714 54.6153 48.5042 54.5745 48.7435C54.5439 48.9214 54.6051 49.0572 54.6085 49.2221C54.7036 49.4647 54.4658 49.8365 54.1737 49.7525C53.9087 49.6813 53.834 49.3741 53.8102 49.1477H53.8068ZM43.9596 39.7276C44.0242 39.844 43.8272 39.498 43.9596 39.7276V39.7276ZM55.4067 22.8341C55.0534 21.8704 54.6085 20.9585 54.2416 20.0368C55.0093 19.057 55.4916 17.8961 55.4169 16.6801C55.3252 15.157 54.8938 14.0769 54.5032 12.7769C54.1261 11.519 53.6302 10.0702 53.5487 8.75727C53.4875 7.80006 53.9053 6.67469 54.9719 6.39335C55.5324 6.24459 56.2695 6.29309 56.7484 6.62941C56.9998 6.80727 57.2376 7.10154 57.2613 7.40876C57.2647 7.46373 57.2715 7.9003 57.2376 7.91647C56.7926 8.11373 56.5107 8.48885 55.9536 8.27866C55.546 8.12343 55.3184 7.77419 55.3863 7.39906C55.8721 7.18563 56.5786 7.50253 56.2423 8.09433C56.2423 8.09433 56.2525 8.07817 56.2661 8.04906C56.2593 8.062 56.2491 8.07816 56.2423 8.09433C56.4427 7.74507 56.9692 7.11773 56.3442 6.83638C55.777 6.58091 55.4135 7.13712 55.1757 7.51871C55.1621 7.53812 55.152 7.55752 55.1418 7.57692C55.1384 7.58339 55.1316 7.58985 55.1282 7.59309C55.1282 7.59309 55.1316 7.58663 55.135 7.58339C54.6492 8.47593 55.8551 9.02567 56.745 8.54383C57.7675 7.99085 58.0222 6.53564 56.8232 5.98912C55.8823 5.56226 54.8225 5.91797 54.1907 6.62941C52.3904 8.66026 53.688 11.0339 54.3673 13.2426C54.7443 14.4617 55.2403 15.6162 55.1723 17.0067C55.1146 18.1806 54.6968 19.1217 54.1533 19.8105C53.7287 18.6981 53.4332 17.5662 53.5657 16.3083C53.6574 15.4157 54.0106 14.4811 54.4658 13.6791C54.4522 13.6597 54.4352 13.6274 54.4149 13.5789C53.7355 14.7366 53.3958 16.0431 53.406 17.2428C53.4128 18.213 53.6234 19.1734 53.9019 20.1048C53.2056 20.8388 52.37 21.2043 51.7994 21.1558C50.8109 21.0717 50.0806 20.1953 49.8972 19.3189C49.69 18.3359 50.5969 15.7326 52.8931 15.4966C51.2797 15.5903 50.3048 16.567 49.7715 17.9446C49.3265 19.0958 49.459 20.716 50.6648 21.4048C51.8707 22.0968 53.1988 21.2398 53.9767 20.357C53.9767 20.357 53.9767 20.357 53.9767 20.3538C53.9937 20.4087 54.0106 20.4637 54.0276 20.5187C54.7104 22.6433 55.889 24.7615 55.9434 27.0219C55.9706 28.2249 55.546 29.2047 54.7851 30.1523C54.7308 30.2202 54.6764 30.2848 54.6187 30.3463C54.0718 29.4861 53.2192 28.8781 52.1424 28.752C51.317 28.6518 50.4644 28.9266 50.067 29.6575C49.7613 30.2202 49.8292 30.9413 50.2436 31.4361C50.8652 32.1799 52.0134 32.057 52.8354 31.7465C53.5215 31.4878 54.1091 31.0448 54.5949 30.508C54.7036 30.6761 54.8021 30.8572 54.8836 31.0513C55.135 31.6366 55.2335 32.3254 54.9787 32.9236C54.938 33.0207 54.8734 33.1241 54.8089 33.2147C54.8327 33.2179 54.8598 33.2212 54.904 33.2406C55.4101 32.4806 55.1893 31.407 54.7919 30.6438C54.7545 30.5694 54.7104 30.4951 54.6662 30.4239C55.0433 29.9938 55.3558 29.5087 55.6003 29.0204C56.5412 27.1351 56.0827 24.6806 55.4033 22.8276L55.4067 22.8341ZM54.5439 30.4304C53.7253 31.2841 52.5229 31.8338 51.2525 31.6042C50.4101 31.4522 49.8394 30.9219 49.9787 30.1296C50.1485 29.1821 51.2083 29.0269 52.1186 29.1013C53.1954 29.1853 54.0106 29.6542 54.5439 30.4304ZM56.4155 7.79034C56.4155 7.79034 56.4088 7.80328 56.402 7.81298C56.4054 7.80328 56.4121 7.79681 56.4155 7.79034ZM56.3272 7.94558C56.3102 7.97469 56.2899 8.00702 56.2695 8.04583C56.2865 8.01996 56.3068 7.98115 56.3272 7.94558ZM56.3952 7.82593C56.3952 7.82593 56.3748 7.8615 56.3612 7.88414C56.3748 7.8615 56.385 7.8421 56.3952 7.82593ZM52.9373 33.4508C52.9067 33.7256 53.0663 34.0716 53.3483 34.146C53.6981 34.2366 54.1058 33.9973 54.4183 33.745C54.4216 33.7547 54.4284 33.7644 54.4318 33.7741C54.7681 34.5567 54.2077 35.7144 53.3822 36.0249C53.3924 35.8858 53.3822 35.7468 53.3483 35.6045C53.2464 35.2229 52.8557 34.7993 52.4074 34.893C52.0881 34.9609 51.976 35.3652 52.0575 35.6239C52.1764 36.0022 52.6519 36.2707 53.0494 36.261C53.1343 36.261 53.2192 36.2415 53.2973 36.2124C53.2124 36.7072 52.8523 37.1729 52.815 37.6774C52.7844 38.1172 52.9543 38.9418 53.5827 38.806C53.8136 38.7575 54.1737 38.4341 54.296 38.2497C53.9495 38.6572 53.4977 38.8092 53.1818 38.4988C52.8388 38.1657 52.9203 37.5674 53.046 37.1729C53.1479 36.8463 53.3007 36.5229 53.3619 36.1898C53.6064 36.0863 53.8238 35.8955 53.9903 35.7209C54.4862 35.2035 54.7681 34.3595 54.493 33.6836C54.5745 33.6157 54.7817 33.4087 54.7987 33.3893C54.7681 33.3764 54.7477 33.3699 54.707 33.3667C54.639 33.4378 54.5303 33.5316 54.4488 33.5931C54.4454 33.5833 54.4386 33.5736 54.4352 33.5639C54.3809 33.4605 54.296 33.3764 54.1907 33.2858C54.1159 33.2794 54.0718 33.2761 54.0378 33.2858C54.1431 33.3828 54.3062 33.5445 54.3673 33.648C54.0956 33.8323 53.7797 33.9488 53.4672 33.9358C52.9916 33.9164 52.8286 33.2891 53.2735 33.0918C53.4706 33.0045 53.6812 33.0401 53.8714 33.1468C53.9325 33.1371 53.9733 33.1338 54.0174 33.1403C53.5962 32.9075 53.0052 32.859 52.9373 33.4475V33.4508ZM53.3143 36.0475C53.3143 36.0475 53.3041 36.0508 53.2973 36.054C52.8252 36.1963 52.0711 35.8309 52.1153 35.307C52.139 35.045 52.4515 34.9674 52.6723 35.0192C53.0629 35.1097 53.2939 35.5689 53.3143 35.9149C53.3143 35.9602 53.3143 36.0055 53.3143 36.0508V36.0475ZM56.4937 13.7341C56.12 12.9418 56.5005 11.8553 57.5229 11.8391C56.5208 11.9555 56.0895 13.3428 56.9386 13.9508C57.7675 14.5426 58.9224 14.4132 59.527 13.65C60.0399 13 60.0705 12.1754 59.4421 11.5998C58.9597 11.1568 58.2702 10.9595 57.6078 11.0533C56.6126 11.1923 55.7973 11.8488 55.2063 12.5894C55.0433 12.7931 54.8734 13.0841 54.7274 13.304C54.7172 13.2749 54.6934 13.1973 54.6832 13.165C55.529 11.8456 56.942 10.3612 58.6234 10.9078C59.1499 11.0792 59.673 11.5513 59.887 12.0493C60.1859 12.7446 59.8599 13.553 59.2824 14.0284C58.5113 14.6622 56.9828 14.7625 56.4937 13.7341ZM25.111 5.69159C25.0873 5.92443 25.0125 6.18314 24.9174 6.42244C24.8733 6.44184 24.8257 6.43861 24.7884 6.43861C24.9004 6.15726 25.0057 5.79185 25.0193 5.51374C25.0771 4.27518 23.9867 2.96872 22.9439 2.27668C22.9745 2.25727 22.9915 2.22818 23.0492 2.20878C24.1769 2.94933 25.2537 4.34632 25.1077 5.69159H25.111ZM22.2917 8.43389C21.1402 8.41449 20.1722 7.52841 19.88 6.52593C19.9989 6.5712 20.145 6.5712 20.2401 6.56797C20.4915 7.54458 21.2965 8.43066 22.4242 8.33364C23.4025 8.24957 24.2856 7.45403 24.7272 6.56473C24.7612 6.56797 24.8189 6.55827 24.8529 6.55504C24.3841 7.53165 23.3855 8.4533 22.2917 8.43389ZM20.179 5.65603C20.1552 5.87269 20.1654 6.1023 20.2061 6.33191C20.2061 6.33191 20.2027 6.33191 20.1993 6.33191C20.0669 6.33191 19.8936 6.3028 19.8155 6.26399C19.7849 6.09583 19.7747 5.92444 19.7883 5.75951C19.914 4.17494 22.1219 2.53538 22.8114 2.09235C24.503 0.708267 32.5194 -1.42282 34.1566 3.90975C34.0581 3.87741 34.0139 3.86448 33.946 3.85155C32.7028 -0.601433 25.0227 0.818218 22.9915 2.19583C22.9371 2.2314 20.3386 4.13613 20.179 5.65603ZM5.00566 1.82071C5.05321 1.88863 5.11095 1.98886 5.0668 2.06971C5.03622 2.12791 4.80524 2.23788 4.76448 2.14734C4.40783 1.71077 3.61638 1.54261 2.94382 1.7043C2.27806 1.86276 1.72438 2.49658 1.6055 3.15305C1.46963 3.90653 1.94178 4.67942 2.66529 4.9931C2.88268 5.08688 3.1748 5.04807 3.40918 5.05454C3.71828 5.06101 4.03418 5.08686 4.31951 5.20329C4.63541 5.33264 4.94451 5.59783 5.02264 5.92768C5.07698 6.16375 5.07019 6.47419 5.38609 6.52593C5.08378 6.00851 5.59669 4.52743 7.0539 4.97369C7.20675 5.01897 7.17618 5.18711 7.1524 5.32293C7.07767 5.7595 7.65852 6.91075 9.86301 5.79184C11.1266 5.15155 12.4344 4.45629 13.5485 3.60255C14.075 3.19833 14.5981 2.78763 15.1789 2.44808C17.1253 1.31624 19.3977 1.19659 21.575 1.73987C21.8943 1.82071 22.4446 1.94036 22.7741 2.05354C22.7197 2.08265 22.7129 2.10205 22.6722 2.14086C21.9317 1.90802 21.2591 1.87246 20.95 1.86275C20.4439 1.84659 19.9378 1.88862 19.4385 1.97593C18.5655 2.13116 17.7265 2.43191 16.9351 2.8135C16.9249 2.84584 16.7279 3.34385 16.6803 3.57992C16.3033 5.40703 16.6158 6.02469 17.5702 6.77494C18.1341 7.14036 17.7707 7.3732 17.3936 7.05952C16.6565 6.45802 16.2489 5.74981 16.3135 4.84433C16.344 4.37543 16.4663 3.91623 16.6293 3.47319C16.7041 3.2727 16.806 3.0528 16.9079 2.82967C16.772 2.92345 16.7041 3.00428 16.6361 3.10453C16.5105 3.35677 16.4086 3.57992 16.395 3.62196C16.1164 4.32047 15.984 5.08041 16.0723 5.82743C16.1538 6.54857 16.327 7.58015 17.825 8.34657C18.3447 8.61175 18.0186 8.86722 17.7978 8.73463C16.5444 8.13638 15.8719 6.95602 15.8617 5.63339C15.8549 4.89931 16.1029 4.08116 16.4731 3.29858C16.0213 3.78688 15.8481 4.21697 15.8039 4.33986C15.4677 5.24533 15.3895 6.24781 15.6375 7.18238C15.8787 8.08462 16.2829 9.32966 18.1953 10.2319C18.7727 10.5035 18.4602 10.966 18.0798 10.717C16.6056 9.88264 15.6069 8.53736 15.3692 6.90428C15.2571 6.14756 15.3454 5.36821 15.5899 4.6406C15.522 4.78289 15.4609 4.92842 15.4099 5.07718C15.0159 6.16051 14.9921 7.34408 15.3488 8.44035C15.702 9.52368 16.4086 10.4971 17.3563 11.1826C17.8284 11.5254 19.4656 12.4115 21.2048 11.9329C21.429 11.8714 21.7754 11.6774 21.9487 11.8779C22.1661 12.1301 21.609 12.4471 20.5798 12.3662C18.9188 12.2369 17.9541 11.6839 17.4819 11.3767C16.4901 10.7267 15.7496 9.73065 15.3488 8.64732C14.948 7.58986 14.9106 6.42245 15.2299 5.34235C15.2978 5.10952 15.3861 4.8799 15.4846 4.65676C15.4643 4.69234 15.4507 4.71822 15.4473 4.72468C15.0329 5.60429 14.6287 6.71349 14.6626 7.6804C14.6966 8.65055 14.7951 9.43961 15.2876 10.2481C16.1912 11.7389 17.2238 12.3436 17.8963 12.7802C18.1341 12.9354 18.0492 13.2976 17.4106 12.8869C17.5329 12.9774 17.4378 12.9063 17.4038 12.8836C15.967 11.9587 15.4337 10.7073 15.2129 10.3127C14.7679 9.51399 14.5539 8.62144 14.5811 7.71597C14.6083 6.76523 14.8834 5.83712 15.2639 4.96399C15.3759 4.70528 15.4982 4.44981 15.6307 4.20081C15.5526 4.30429 15.4779 4.411 15.4065 4.51772C15.3726 4.57915 15.3386 4.64061 15.3046 4.70528C14.7509 5.79185 14.4079 6.98514 14.3399 8.19136C14.272 9.35553 14.4758 10.5359 14.9955 11.5966C15.2469 12.1075 16.5954 13.76 17.9507 14.3874C18.1409 14.4747 18.416 14.5911 18.4636 14.8142C18.5281 15.1085 18.0186 14.9501 17.9065 14.8821C16.4493 13.9993 15.5186 12.6734 15.0465 11.8003C14.4826 10.7525 14.2312 9.57542 14.2584 8.40154C14.2822 7.32145 14.5369 6.24781 14.9581 5.24209C14.9208 5.31 14.8868 5.37469 14.8528 5.4426C14.3297 6.47096 14.0716 7.58662 14.0376 8.72493C14.0139 9.54955 14.323 14.1739 17.9507 16.0592C18.6538 16.4247 19.537 16.3535 20.2537 16.014C20.9738 15.6712 21.5546 14.908 21.2591 14.1189C21.0146 13.4657 19.9785 12.8804 19.4656 13.6274C19.3128 13.8505 19.3026 14.1448 19.5438 14.3194C19.6932 14.4294 19.9038 14.4423 20.0227 14.2806C20.145 14.1125 19.914 14.0349 19.9378 13.9702C19.965 13.8958 20.1416 14.1383 20.128 14.2192C20.0906 14.3873 19.9242 14.5102 19.7442 14.507C19.3535 14.5038 19.1124 14.0963 19.1939 13.7632C19.4011 12.9418 20.3997 12.8901 21.0112 13.3234C21.6531 13.7826 21.8298 14.6105 21.4935 15.2896C21.4833 15.309 21.4731 15.3284 21.4629 15.3478C21.8026 14.9888 22.0947 14.5749 22.397 14.1869C23.2191 13.1359 24.2211 12.5991 25.2639 12.4956C26.4969 12.3759 27.4888 13.0906 27.7571 14.1416C27.9915 15.06 27.5465 16.2533 26.6192 16.7028C26.1437 16.9324 25.5119 16.9809 25.0567 16.6801C24.5947 16.3794 24.3366 15.697 24.6865 15.2281C24.999 14.811 25.8923 14.7463 25.9399 15.3931C25.9568 15.6259 25.7394 15.8782 25.4745 15.7908C25.3522 15.752 25.2605 15.613 25.3182 15.4901C25.3692 15.3801 25.6104 15.351 25.5866 15.5127C25.607 15.3252 25.2062 15.4157 25.3454 15.6615C25.4507 15.8523 25.7394 15.7844 25.8447 15.6324C25.967 15.4545 25.8855 15.2023 25.7259 15.0729C25.5424 14.9209 25.2707 14.9274 25.0601 15.018C24.5879 15.2185 24.5166 15.7682 24.7238 16.1757C24.931 16.5864 25.3726 16.7933 25.838 16.7836C26.8434 16.761 27.5295 15.9299 27.4854 15.0082C27.4412 14.0704 26.7483 13.2458 25.787 13.0259C24.6151 12.7575 23.5893 13.4334 22.7979 14.1772C22.3868 14.562 22.0098 14.9824 21.609 15.3769C21.4324 15.5483 21.2218 15.765 20.984 15.9299C20.5492 16.2921 19.9718 16.499 19.4011 16.5508C17.5906 16.7125 15.9534 15.2217 15.0872 13.8538C14.6898 13.2264 14.3977 12.5473 14.1905 11.8423C14.1905 11.9879 14.1905 12.1301 14.1905 12.2757C14.1565 13.7082 13.4806 15.3769 11.9011 15.8232C10.5492 16.208 8.80322 15.668 8.16463 14.4165C7.53624 13.1876 8.24955 11.5416 9.64562 11.1503C10.2468 10.9821 10.9228 11.0759 11.3882 11.4931C11.8637 11.9167 12.0064 12.6055 11.5546 13.1003C11.344 13.3331 11.0349 13.4754 10.7088 13.4043C10.3521 13.3267 10.043 12.9936 10.1551 12.6346C10.2435 12.3501 10.5933 12.1593 10.8718 12.3468C11.2115 12.5764 10.8175 12.9645 10.6205 12.6928C10.4574 12.806 10.6952 12.9742 10.8039 12.9968C10.9805 13.0356 11.1402 12.9257 11.2421 12.7996C11.4697 12.5214 11.4119 12.1592 11.1843 11.9005C10.702 11.354 9.82225 11.3961 9.2516 11.7874C8.68095 12.1787 8.32428 12.8739 8.36505 13.5433C8.4092 14.2774 8.9323 14.8821 9.60486 15.2023C10.325 15.5483 11.2421 15.6421 11.9962 15.3413C12.7027 15.06 13.2258 14.3809 13.4907 13.7147C13.9867 12.46 13.681 11.0436 13.6198 9.74035C13.5587 8.46946 13.6742 7.19856 14.1361 5.99881C14.289 5.60429 14.4724 5.2227 14.683 4.85405C14.109 5.60106 13.5247 6.3416 12.9031 7.05304C11.8841 8.22045 10.7598 9.31995 9.45201 10.1995C8.84399 10.6102 8.202 10.9692 7.52265 11.2635C7.45471 11.2926 6.88066 11.5157 6.45607 11.6612C6.35756 11.8068 6.00769 11.9491 5.86843 12.0299C5.53215 12.2272 5.17889 12.4083 4.81204 12.5441C4.5369 12.6443 4.21081 12.6249 4.06815 12.3403C3.92548 12.059 4.1157 11.7033 4.43839 11.6451C4.37725 11.6548 5.12454 11.658 5.43704 11.6645C5.74275 11.6709 6.05185 11.6645 6.35756 11.6548C6.75159 11.5028 7.32224 11.2764 7.39357 11.2441C8.02537 10.9595 8.62659 10.6199 9.19725 10.2351C10.4642 9.38785 11.558 8.33041 12.5498 7.20181C13.3039 6.34484 13.9969 5.4426 14.683 4.5339C14.4181 4.79584 14.1463 5.05453 13.8712 5.30677C12.7876 6.29955 11.6293 7.22766 10.3861 8.03612C9.0444 8.90925 7.56681 9.67244 5.97373 10.0249C5.22644 10.1899 4.44859 10.261 3.68432 10.1769C3.60959 10.1704 2.09803 9.92144 1.85347 9.8794C1.39151 9.80179 0.932945 9.6595 0.515144 9.45577C0.202644 9.30378 -0.0962753 9.05154 0.0294037 8.67965C0.155087 8.30452 0.749519 8.10404 1.00428 8.41449C0.932945 8.33041 1.48661 8.99658 1.74816 9.24235C2.42751 9.88264 3.41937 10.0767 3.4907 10.0864C4.20742 10.1737 4.93432 10.1252 5.63745 9.98289C7.14561 9.68214 8.54847 8.99011 9.82565 8.19136C11.0451 7.42817 12.1762 6.53886 13.2394 5.59135C13.7489 5.13538 14.2414 4.66648 14.7204 4.1814C14.7815 4.11673 14.8427 4.05206 14.9038 3.98738C14.1633 4.49186 13.4568 5.0416 12.7537 5.59459C11.9418 6.23165 11.0655 6.76199 10.1449 7.24383C8.86097 7.91323 7.46151 8.4727 5.99071 8.59558C4.41122 8.72817 2.77738 8.2916 1.63268 7.2115C0.525333 6.16697 -0.320461 4.26226 0.36908 2.93639C1.05862 1.61052 2.83512 0.546593 4.31271 1.23863C4.58106 1.36475 4.8494 1.56523 5.01244 1.80777L5.00566 1.82071ZM34.0173 4.39806C34.0785 4.41423 34.1566 4.44011 34.2143 4.46275C34.177 4.93812 33.912 5.462 33.4773 5.72071C33.1648 5.90504 32.679 5.99557 32.3393 5.83065C32.0133 5.67219 32.071 5.37791 32.2646 5.14184C32.3529 5.03189 32.3937 4.96076 32.5296 5.03514C32.662 5.10628 32.5296 5.12891 32.4582 5.12891C32.2001 5.12891 32.1627 5.58812 32.3292 5.70131C32.6451 5.91797 33.1681 5.79185 33.4637 5.60106C33.7286 5.42966 34.0411 4.95428 34.0207 4.39483L34.0173 4.39806ZM8.28013 4.44011C8.30051 4.44011 8.21559 4.41423 8.28013 4.44011V4.44011ZM21.7109 0.821453C21.361 0.646828 20.522 0.355797 20.4235 0.329926C19.6966 0.135895 18.9357 0.106781 18.1885 0.216728C16.6158 0.449566 15.1891 1.25156 13.9018 2.10529C12.6619 2.92669 11.5206 3.89682 10.2265 4.6406C9.6694 4.96075 9.00364 5.28413 8.33108 5.20329C8.0933 5.17418 7.7774 5.09333 7.70947 4.83786C7.62795 4.55328 8.02877 4.33986 8.28013 4.44011C8.45336 4.44981 8.59263 4.51126 8.77945 4.48862C9.03421 4.45951 9.27877 4.36573 9.50975 4.26549C10.1008 4.01325 10.6443 3.66722 11.181 3.32443C12.3596 2.57418 13.5077 1.78191 14.7577 1.13838C15.984 0.507786 17.3325 0.00653839 18.7421 6.86646e-05C19.3841 -0.0031662 20.0261 0.103546 20.6273 0.316978C20.7122 0.346081 21.3984 0.646828 21.7075 0.821453H21.7109ZM17.9031 14.8789C18.1409 15.0147 17.7842 14.8142 17.9031 14.8789V14.8789ZM22.1015 6.03438C22.4548 5.25826 23.6878 4.76349 24.4996 5.10627C24.5098 5.10951 24.52 5.11599 24.5302 5.11922C24.2551 5.40703 23.9901 5.78862 24.075 6.12494C24.143 6.39334 24.4996 6.55826 24.7918 6.53886C25.4134 6.49358 25.3794 5.93091 25.1518 5.52345C25.1586 5.56549 25.1518 5.60429 25.1382 5.6625C25.2469 5.84683 25.2741 6.05055 25.179 6.23487C24.9582 6.6488 24.306 6.47419 24.2992 6.02145C24.2958 5.72394 24.4283 5.42643 24.6287 5.17419C24.7374 5.23886 24.9004 5.39733 24.999 5.50081C25.0125 5.46847 25.0091 5.42966 25.0057 5.35528C24.9174 5.2518 24.8291 5.17096 24.7238 5.11598C24.7136 5.10952 24.7034 5.10627 24.6932 5.10303C24.7612 5.02866 24.8631 4.92842 24.9412 4.86697C24.9412 4.82817 24.931 4.80876 24.9208 4.77965C24.9004 4.79582 24.6763 4.98662 24.6015 5.06099C23.9018 4.77642 23.0051 5.01896 22.448 5.47169C22.2612 5.62369 22.0506 5.82741 21.9351 6.05378C21.5818 6.09906 21.2387 6.23488 20.8923 6.32219C20.4745 6.42891 19.8461 6.48389 19.5064 6.14758C19.1905 5.83713 19.3637 5.41026 19.8053 5.09658C19.6049 5.20653 19.2584 5.53961 19.1973 5.75628C19.0342 6.3513 19.8936 6.53886 20.3556 6.52269C20.8855 6.50329 21.3882 6.17666 21.9079 6.11199C21.8773 6.1896 21.8536 6.26722 21.8502 6.34807C21.8264 6.72643 22.0947 7.18886 22.4888 7.31498C22.7605 7.40229 23.1885 7.30851 23.27 7.00453C23.3855 6.57766 22.9507 6.19285 22.5533 6.08613C22.4038 6.04409 22.2578 6.03438 22.1151 6.03762L22.1015 6.03438ZM22.217 6.09906C22.5805 6.12816 23.0526 6.36424 23.1341 6.73613C23.1817 6.94957 23.0934 7.24384 22.8148 7.25677C22.2612 7.28265 21.9045 6.5518 22.0676 6.10877C22.0676 6.1023 22.0709 6.09905 22.0743 6.09259C22.1219 6.09259 22.1695 6.09259 22.2136 6.09582L22.217 6.09906ZM46.1438 5.53314C46.1132 5.52344 46.0317 5.49756 46.0011 5.48786C46.2355 5.35851 46.548 5.2033 46.7654 5.05778C47.5636 4.51773 48.2769 3.76423 48.4535 2.81995C48.5724 2.19259 48.389 1.52967 47.9372 1.05754C47.353 0.439877 46.4868 0.443104 45.7871 0.908775C44.9651 1.45852 44.7918 2.55478 45.3863 3.36324C45.9977 4.1911 47.4685 3.82567 47.6247 2.87816C47.5738 3.84831 46.4223 4.17817 45.6037 3.79658C44.5371 3.29857 44.6933 1.84658 45.3829 1.13191C45.8992 0.598328 46.7586 0.313744 47.4787 0.620956C47.995 0.840858 48.4739 1.35504 48.637 1.85952C49.1601 3.47643 47.5534 4.77319 46.1404 5.53638L46.1438 5.53314ZM53.7389 3.72866C53.2056 2.57095 51.6703 2.76823 51.0555 3.72221C50.5188 4.5533 51.0589 5.71746 52.01 5.28413C52.01 5.28413 52.0032 5.28737 51.9998 5.2906C52.0066 5.28737 52.0134 5.28414 52.0201 5.27768C52.0405 5.26797 52.0609 5.25826 52.0813 5.24856C52.4889 5.03189 53.0867 4.70528 52.8354 4.15876C52.5602 3.55727 51.8843 4.03588 51.5106 4.21697C51.5242 4.2105 51.5378 4.20404 51.5514 4.19757C51.5276 4.2105 51.5106 4.21697 51.5106 4.21697C52.1424 3.91623 52.4515 4.59857 52.2138 5.05454C51.8163 5.10628 51.4563 4.87668 51.3068 4.48538C51.103 3.94857 51.5072 3.6931 51.728 3.27594C51.745 3.2436 52.207 3.26299 52.2613 3.26946C52.584 3.29856 52.8829 3.53788 53.0629 3.78041C53.4026 4.24608 53.4264 4.95106 53.2566 5.47817C52.9271 6.48389 51.7348 6.84285 50.7294 6.75554C49.3537 6.63588 47.8489 6.11847 46.5378 5.71747C45.1859 5.30354 44.0649 4.85727 42.4685 4.72145C41.1947 4.6115 39.9617 5.03189 38.9053 5.73363C37.9508 5.35528 37.0065 4.90255 36.0044 4.5339C34.0819 3.82893 31.5173 3.31151 29.5098 4.14584C28.9867 4.3625 28.4704 4.64384 28.0051 4.98986C27.9304 4.94782 27.8556 4.90578 27.7775 4.86374C26.9895 4.46274 25.8685 4.21698 25.0567 4.67295C25.0771 4.71822 25.0771 4.74085 25.0805 4.76349C25.179 4.70528 25.2911 4.64708 25.393 4.60827C26.0316 4.38514 26.7483 4.50154 27.3563 4.76025C27.5567 4.84433 27.7435 4.94459 27.9168 5.05454C27.3393 5.50081 26.8536 6.04733 26.5615 6.69086C26.2082 7.46374 26.0452 8.5503 26.806 9.16796C27.3121 9.57865 28.0662 9.66597 28.6674 9.39109C29.4487 9.0386 29.7646 8.23338 29.6865 7.44756C29.588 6.4192 28.9766 5.58811 28.0934 5.04159C28.1613 4.98985 28.2327 4.93812 28.304 4.88961C29.3196 4.19434 30.3658 3.82246 31.626 3.88713C33.997 4.01002 36.1811 5.20006 38.389 5.91796C38.4467 5.93737 38.5045 5.95353 38.5622 5.97293C38.5622 5.97293 38.5622 5.97293 38.5588 5.97293C37.6077 6.68438 36.6668 7.9197 37.353 9.09035C38.0391 10.2578 39.7375 10.4388 40.9569 10.054C42.4209 9.59158 43.4773 8.69905 43.6302 7.16298C43.3075 9.33934 40.5459 10.1155 39.5201 9.88911C38.6064 9.68538 37.7096 8.96099 37.6553 8.01995C37.6247 7.47667 38.0323 6.69408 38.8271 6.05378C39.7952 6.35129 40.7973 6.58089 41.8163 6.6197C43.0765 6.66821 44.459 6.38687 45.6954 5.77892C45.6444 5.75951 45.6105 5.7401 45.5901 5.72716C44.7341 6.13139 43.7423 6.43861 42.8013 6.49681C41.4766 6.58089 40.2979 6.26399 39.143 5.82419C39.8835 5.32618 40.8822 4.96075 42.1186 4.94458C43.5826 4.92518 44.7749 5.43612 46.0452 5.83065C48.3415 6.54856 50.7905 7.85825 52.9814 6.21223C53.7525 5.63338 54.1601 4.63738 53.7389 3.72544V3.72866ZM28.0051 5.10951C28.8033 5.64309 29.2687 6.43215 29.323 7.46051C29.3672 8.32717 29.1702 9.33289 28.1715 9.46225C27.3359 9.5722 26.7992 9.00951 26.6668 8.20428C26.4664 6.98837 27.0812 5.86299 28.0051 5.10951ZM51.5718 4.18788C51.5718 4.18788 51.5854 4.1814 51.5922 4.17817C51.5854 4.1814 51.5786 4.18464 51.5718 4.18788ZM51.5989 4.17493C51.6227 4.16199 51.6465 4.1523 51.6669 4.1426C51.6431 4.15553 51.6193 4.16523 51.5989 4.17493ZM51.7926 4.08439C51.7926 4.08439 51.7552 4.10055 51.7348 4.11025C51.7586 4.10055 51.7756 4.09086 51.7926 4.08439ZM51.8367 4.06499C51.8367 4.06499 51.8197 4.07145 51.8095 4.07792C51.8197 4.07145 51.8299 4.06823 51.8367 4.06499ZM44.2416 15.3446C43.2701 14.3874 45.8686 12.8351 45.8686 12.8351C45.427 13.0389 44.6594 12.8351 44.5439 12.1366C44.4114 11.3346 46.3442 10.6135 47.5059 10.1607C48.1037 9.92791 49.3265 9.36845 50.3727 8.88014C48.6743 9.56571 46.12 10.2481 45.6139 9.27792C46.3645 9.1712 46.2219 8.74756 46.2219 8.74756C44.6696 8.42095 44.9617 6.52915 46.0928 6.53886C45.8924 7.70303 50.1587 9.02892 53.1988 6.85579C51.0521 9.79533 52.2375 13.954 53.4638 13.7923C53.4468 14.8724 51.4529 15.102 51.1472 13.6145C51.1472 13.6145 50.7056 13.4657 50.5731 14.1804C49.6662 13.7244 50.2097 11.7162 50.8856 10.1543C50.332 11.1471 49.8021 12.156 49.7341 12.3533C49.5983 12.751 48.5656 15.3834 47.5296 15.0729C46.745 14.8369 46.8061 14.1966 46.8639 13.9443C46.6295 14.5749 45.1587 16.2436 44.2416 15.3446Z" fill="#D3B358"/>
<path id="Vector_2" d="M56.1809 3.00148C55.5148 3.8059 55.6244 5.24675 55.6244 5.24675C55.6244 5.24675 56.8176 5.3792 57.4837 4.57478C58.1498 3.77036 58.0401 2.32953 58.0401 2.32953C58.0401 2.32953 56.847 2.19706 56.1809 3.00148Z" fill="#D3B358"/>
</g>
</svg>
